<?xml version="1.0" encoding="UTF-8"?>
<svg xmlns:xlink="http://www.w3.org/1999/xlink" width="1000px" height="570px" viewBox="0 0 1000 570" version="1.1"
     xmlns="http://www.w3.org/2000/svg">
    <!-- Generator: Sketch 63.1 (92452) - https://sketch.com -->
    <title>Large Mono</title>
    <desc>Created with Sketch.</desc>
    <defs>
        <path d="M939.779656,61.9079177 L933.627197,61.9079177 L933.627197,36.8075008 L924.261794,36.8075008 L924.261794,31.6348804 L948.872292,31.6348804 L948.872292,36.8075008 L939.779656,36.8075008 L939.779656,61.9079177 Z M964.771496,61.9079177 L958.182744,37.7880013 L958.182744,61.9079177 L952.466578,61.9079177 L952.466578,31.6348804 L962.049796,31.6348804 L967.493858,52.488227 L973.048483,31.6348804 L982.5218,31.6348804 L982.5218,61.9079177 L976.696395,61.9079177 L976.696395,37.7880013 L970.162594,61.9079177 L964.771496,61.9079177 L964.771496,61.9079177 Z M206.086518,5.68434189e-14 C275.073107,5.68434189e-14 343.732642,32.4518538 382.282666,90.4390934 C398.072631,114.123379 402.591805,125.939039 411.139572,149.733226 C427.855749,78.2420903 500.708066,26.5708367 568.332811,8.0585096 C593.814571,1.0884152 617.880199,5.68434189e-14 643.90749,5.68434189e-14 C697.974714,2.0146274 748.339074,20.908297 790.918354,53.8500701 C803.114033,63.2690987 820.646521,81.8900025 828.977135,94.141294 C850.810982,126.265432 862.517404,156.919811 862.517404,197.648652 L862.517404,197.648652 L737.939545,197.648652 C966.296204,332.734617 843.242392,570.401727 629.967963,570.401727 C512.086771,570.401727 401.339863,491.506853 401.339863,365.948494 L401.339863,365.948494 L513.176511,365.948494 C456.821894,329.086704 438.364517,314.439443 413.100573,253.402787 C391.103199,347.599032 324.51258,390.232599 235.543244,410.922419 L235.543244,410.922419 L235.543244,570.401727 L0,570.401727 L0,570.401727 L0,5.68434189e-14 Z M953.337178,0.163527101 C979.145329,0.163527101 1000,21.0168737 1000,46.770737 C1000,72.5259243 979.145329,93.4342214 953.337178,93.4342214 C927.637603,93.4342214 906.729968,72.5259243 906.729968,46.770737 C906.729968,21.0168737 927.637603,0.163527101 953.337178,0.163527101 Z"
              id="path-1"></path>
    </defs>
    <g id="Large-Mono" stroke="none" stroke-width="1" fill="none" fill-rule="evenodd">
        <mask id="mask-2" fill="white">
            <use xlink:href="#path-1"></use>
        </mask>
        <use id="Mask" fill="#000000" xlink:href="#path-1"></use>
    </g>
</svg>