<svg width="1000" height="570" viewBox="0 0 1000 570" fill="none" xmlns="http://www.w3.org/2000/svg">
    <g id="Large Mono" clip-path="url(#clip0_0_30)">
        <path id="Mask" fill-rule="evenodd" clip-rule="evenodd"
              d="M235.543 570.402H0V0H206.087C275.073 0 343.733 32.4519 382.283 90.4391C398.073 114.123 402.592 125.939 411.14 149.733C427.856 78.2421 500.708 26.5708 568.333 8.05851C593.815 1.08842 617.88 0 643.907 0C697.975 2.01463 748.339 20.9083 790.918 53.8501C803.114 63.2691 820.646 81.89 828.977 94.1413C850.811 126.265 862.517 156.92 862.517 197.649H737.94C966.296 332.735 843.242 570.402 629.968 570.402C512.087 570.402 401.34 491.507 401.34 365.948H513.177C456.822 329.087 438.365 314.439 413.101 253.403C391.103 347.599 324.513 390.233 235.543 410.922V570.402ZM933.627 61.9079H939.78V36.8075H948.872V31.6349H924.262V36.8075H933.627V61.9079ZM958.183 37.788L964.771 61.9079H970.163L976.696 37.788V61.9079H982.522V31.6349H973.048L967.494 52.4882L962.05 31.6349H952.467V61.9079H958.183V37.788ZM953.337 93.4342C927.638 93.4342 906.73 72.5259 906.73 46.7707C906.73 21.0169 927.638 0.163527 953.337 0.163527C979.145 0.163527 1000 21.0169 1000 46.7707C1000 72.5259 979.145 93.4342 953.337 93.4342Z"
              fill="white"/>
        <mask id="mask0_0_30" style="mask-type:luminance" maskUnits="userSpaceOnUse" x="0" y="0" width="1000"
              height="571">
            <path id="Mask_2" fill-rule="evenodd" clip-rule="evenodd"
                  d="M235.543 570.402H0V0H206.087C275.073 0 343.733 32.4519 382.283 90.4391C398.073 114.123 402.592 125.939 411.14 149.733C427.856 78.2421 500.708 26.5708 568.333 8.05851C593.815 1.08842 617.88 0 643.907 0C697.975 2.01463 748.339 20.9083 790.918 53.8501C803.114 63.2691 820.646 81.89 828.977 94.1413C850.811 126.265 862.517 156.92 862.517 197.649H737.94C966.296 332.735 843.242 570.402 629.968 570.402C512.087 570.402 401.34 491.507 401.34 365.948H513.177C456.822 329.087 438.365 314.439 413.101 253.403C391.103 347.599 324.513 390.233 235.543 410.922V570.402ZM933.627 61.9079H939.78V36.8075H948.872V31.6349H924.262V36.8075H933.627V61.9079ZM958.183 37.788L964.771 61.9079H970.163L976.696 37.788V61.9079H982.522V31.6349H973.048L967.494 52.4882L962.05 31.6349H952.467V61.9079H958.183V37.788ZM953.337 93.4342C927.638 93.4342 906.73 72.5259 906.73 46.7707C906.73 21.0169 927.638 0.163527 953.337 0.163527C979.145 0.163527 1000 21.0169 1000 46.7707C1000 72.5259 979.145 93.4342 953.337 93.4342Z"
                  fill="white"/>
        </mask>
        <g mask="url(#mask0_0_30)">
        </g>
    </g>
    <defs>
        <clipPath id="clip0_0_30">
            <rect width="1000" height="570" fill="white"/>
        </clipPath>
    </defs>
</svg>
