<svg width="1024" height="1024" viewBox="0 0 1024 1024" fill="none" xmlns="http://www.w3.org/2000/svg">
<path d="M19.5312 664V361.455H150.122C172.577 361.455 192.224 365.886 209.065 374.75C225.906 383.614 239.005 396.072 248.361 412.125C257.717 428.178 262.395 446.939 262.395 468.409C262.395 490.076 257.569 508.837 247.918 524.693C238.365 540.549 224.921 552.761 207.588 561.33C190.353 569.898 170.213 574.182 147.168 574.182H69.1676V510.364H130.622C140.274 510.364 148.497 508.689 155.293 505.341C162.187 501.894 167.455 497.019 171.099 490.716C174.842 484.413 176.713 476.977 176.713 468.409C176.713 459.742 174.842 452.356 171.099 446.25C167.455 440.045 162.187 435.318 155.293 432.068C148.497 428.72 140.274 427.045 130.622 427.045H101.668V664H19.5312ZM455.622 456C454.834 446.152 451.141 438.47 444.543 432.955C438.043 427.439 428.145 424.682 414.849 424.682C406.38 424.682 399.437 425.716 394.02 427.784C388.702 429.754 384.762 432.462 382.202 435.909C379.641 439.356 378.312 443.295 378.213 447.727C378.016 451.371 378.656 454.67 380.134 457.625C381.709 460.481 384.171 463.091 387.52 465.455C390.868 467.72 395.152 469.788 400.372 471.659C405.592 473.53 411.796 475.205 418.986 476.682L443.804 482C460.546 485.545 474.876 490.223 486.793 496.034C498.709 501.845 508.459 508.689 516.043 516.568C523.626 524.348 529.19 533.114 532.736 542.864C536.38 552.614 538.251 563.25 538.349 574.773C538.251 594.667 533.277 611.508 523.429 625.295C513.58 639.083 499.497 649.572 481.179 656.761C462.959 663.951 441.046 667.545 415.44 667.545C389.145 667.545 366.198 663.655 346.599 655.875C327.099 648.095 311.933 636.129 301.099 619.977C290.365 603.727 284.948 582.947 284.849 557.636H362.849C363.342 566.894 365.656 574.674 369.793 580.977C373.929 587.28 379.74 592.057 387.224 595.307C394.808 598.557 403.819 600.182 414.259 600.182C423.024 600.182 430.361 599.098 436.27 596.932C442.179 594.765 446.66 591.761 449.713 587.92C452.766 584.08 454.342 579.697 454.44 574.773C454.342 570.144 452.815 566.106 449.861 562.659C447.005 559.114 442.277 555.962 435.679 553.205C429.08 550.348 420.168 547.689 408.94 545.227L378.804 538.727C352.016 532.917 330.891 523.216 315.429 509.625C300.065 495.936 292.433 477.273 292.531 453.636C292.433 434.432 297.554 417.64 307.895 403.261C318.334 388.784 332.762 377.508 351.179 369.432C369.694 361.356 390.918 357.318 414.849 357.318C439.274 357.318 460.399 361.405 478.224 369.58C496.05 377.754 509.789 389.277 519.44 404.148C529.19 418.92 534.115 436.205 534.213 456H455.622ZM615.094 631.205C603.67 631.205 593.87 627.216 585.696 619.239C577.62 611.163 573.632 601.364 573.73 589.841C573.632 578.614 577.62 569.011 585.696 561.034C593.87 553.057 603.67 549.068 615.094 549.068C625.927 549.068 635.48 553.057 643.753 561.034C652.124 569.011 656.359 578.614 656.457 589.841C656.359 597.523 654.34 604.515 650.401 610.818C646.56 617.023 641.537 621.996 635.332 625.739C629.128 629.383 622.382 631.205 615.094 631.205ZM615.094 485.841C603.67 485.841 593.87 481.852 585.696 473.875C577.62 465.799 573.632 456 573.73 444.477C573.632 433.25 577.62 423.648 585.696 415.67C593.87 407.693 603.67 403.705 615.094 403.705C625.927 403.705 635.48 407.693 643.753 415.67C652.124 423.648 656.359 433.25 656.457 444.477C656.359 452.159 654.34 459.152 650.401 465.455C646.56 471.659 641.537 476.633 635.332 480.375C629.128 484.019 622.382 485.841 615.094 485.841ZM849.094 347.273L751.594 709.5H682.457L779.957 347.273H849.094ZM1020.53 347.273L923.031 709.5H853.895L951.395 347.273H1020.53Z" fill="url(#paint0_linear_504_32)"/>
<defs>
<linearGradient id="paint0_linear_504_32" x1="-682.313" y1="672.807" x2="795.044" y2="-140.389" gradientUnits="userSpaceOnUse">
<stop offset="0.4" stop-color="#BBA5FF"/>
<stop offset="1" stop-color="#FEA574"/>
</linearGradient>
</defs>
</svg>
