<svg width="1024" height="1024" viewBox="0 0 1024 1024" fill="none" xmlns="http://www.w3.org/2000/svg">
<path d="M134.062 629V396.273H234.517C251.79 396.273 266.903 399.682 279.858 406.5C292.813 413.318 302.888 422.902 310.085 435.25C317.282 447.598 320.881 462.03 320.881 478.545C320.881 495.212 317.169 509.644 309.744 521.841C302.396 534.038 292.055 543.432 278.722 550.023C265.464 556.614 249.972 559.909 232.244 559.909H172.244V510.818H219.517C226.941 510.818 233.267 509.53 238.494 506.955C243.797 504.303 247.85 500.553 250.653 495.705C253.532 490.856 254.972 485.136 254.972 478.545C254.972 471.879 253.532 466.197 250.653 461.5C247.85 456.727 243.797 453.091 238.494 450.591C233.267 448.015 226.941 446.727 219.517 446.727H197.244V629H134.062ZM469.517 469C468.911 461.424 466.07 455.515 460.994 451.273C455.994 447.03 448.381 444.909 438.153 444.909C431.638 444.909 426.297 445.705 422.131 447.295C418.04 448.811 415.009 450.894 413.04 453.545C411.07 456.197 410.047 459.227 409.972 462.636C409.82 465.439 410.313 467.977 411.449 470.25C412.661 472.447 414.555 474.455 417.131 476.273C419.706 478.015 423.002 479.606 427.017 481.045C431.032 482.485 435.805 483.773 441.335 484.909L460.426 489C473.305 491.727 484.328 495.326 493.494 499.795C502.661 504.265 510.161 509.53 515.994 515.591C521.828 521.576 526.108 528.318 528.835 535.818C531.638 543.318 533.078 551.5 533.153 560.364C533.078 575.667 529.252 588.621 521.676 599.227C514.1 609.833 503.267 617.902 489.176 623.432C475.161 628.962 458.305 631.727 438.608 631.727C418.381 631.727 400.729 628.735 385.653 622.75C370.653 616.765 358.987 607.561 350.653 595.136C342.396 582.636 338.229 566.652 338.153 547.182H398.153C398.532 554.303 400.313 560.288 403.494 565.136C406.676 569.985 411.146 573.659 416.903 576.159C422.737 578.659 429.669 579.909 437.699 579.909C444.441 579.909 450.085 579.076 454.631 577.409C459.176 575.742 462.623 573.432 464.972 570.477C467.32 567.523 468.532 564.152 468.608 560.364C468.532 556.803 467.358 553.697 465.085 551.045C462.888 548.318 459.252 545.894 454.176 543.773C449.1 541.576 442.244 539.53 433.608 537.636L410.426 532.636C389.82 528.167 373.57 520.705 361.676 510.25C349.858 499.72 343.987 485.364 344.062 467.182C343.987 452.409 347.926 439.492 355.881 428.432C363.911 417.295 375.009 408.621 389.176 402.409C403.419 396.197 419.744 393.091 438.153 393.091C456.941 393.091 473.191 396.235 486.903 402.523C500.616 408.811 511.184 417.674 518.608 429.114C526.108 440.477 529.896 453.773 529.972 469H469.517ZM592.188 603.773C583.4 603.773 575.862 600.705 569.574 594.568C563.362 588.356 560.294 580.818 560.369 571.955C560.294 563.318 563.362 555.932 569.574 549.795C575.862 543.659 583.4 540.591 592.188 540.591C600.521 540.591 607.869 543.659 614.233 549.795C620.672 555.932 623.93 563.318 624.006 571.955C623.93 577.864 622.377 583.242 619.347 588.091C616.392 592.864 612.528 596.689 607.756 599.568C602.983 602.371 597.794 603.773 592.188 603.773ZM592.188 491.955C583.4 491.955 575.862 488.886 569.574 482.75C563.362 476.538 560.294 469 560.369 460.136C560.294 451.5 563.362 444.114 569.574 437.977C575.862 431.841 583.4 428.773 592.188 428.773C600.521 428.773 607.869 431.841 614.233 437.977C620.672 444.114 623.93 451.5 624.006 460.136C623.93 466.045 622.377 471.424 619.347 476.273C616.392 481.045 612.528 484.871 607.756 487.75C602.983 490.553 597.794 491.955 592.188 491.955ZM772.188 385.364L697.188 664H644.006L719.006 385.364H772.188ZM904.062 385.364L829.062 664H775.881L850.881 385.364H904.062Z" fill="url(#paint0_linear_504_30)"/>
<defs>
<linearGradient id="paint0_linear_504_30" x1="-405.907" y1="635.838" x2="730.686" y2="10.2751" gradientUnits="userSpaceOnUse">
<stop offset="0.4" stop-color="#BBA5FF"/>
<stop offset="1" stop-color="#FEA574"/>
</linearGradient>
</defs>
</svg>
