<svg width="1000" height="1000" viewBox="0 0 1000 1000" fill="none" xmlns="http://www.w3.org/2000/svg">
<g clip-path="url(#clip0_205_7)">
<rect width="1000" height="1000" fill="white"/>
<rect width="1000" height="1000" fill="url(#paint0_linear_205_7)"/>
<path fill-rule="evenodd" clip-rule="evenodd" d="M395.161 670.4H254.4V329.6H377.557C418.784 329.6 459.815 348.989 482.852 383.635C492.288 397.786 494.989 404.845 500.097 419.062C510.086 376.348 553.623 345.475 594.036 334.415C609.263 330.25 623.645 329.6 639.199 329.6C671.51 330.804 701.607 342.092 727.053 361.774C734.341 367.402 744.818 378.527 749.797 385.847C762.845 405.04 769.84 423.356 769.84 447.69H695.393C831.858 528.4 758.322 670.4 630.869 670.4C560.423 670.4 494.241 623.262 494.241 548.245H561.074C527.397 526.221 516.367 517.469 501.269 481.002C488.123 537.281 448.329 562.754 395.161 575.115V670.4ZM812.335 366.588H816.012V351.591H821.446V348.501H806.739V351.591H812.335V366.588ZM827.01 352.177L830.947 366.588H834.169L838.074 352.177V366.588H841.555V348.501H835.894L832.574 360.96L829.321 348.501H823.594V366.588H827.01V352.177ZM824.114 385.424C808.756 385.424 796.262 372.932 796.262 357.544C796.262 342.157 808.756 329.698 824.114 329.698C839.537 329.698 852 342.157 852 357.544C852 372.932 839.537 385.424 824.114 385.424Z" fill="white"/>
</g>
<defs>
<linearGradient id="paint0_linear_205_7" x1="-666.973" y1="818.702" x2="1086.3" y2="344.187" gradientUnits="userSpaceOnUse">
<stop offset="0.4" stop-color="#664FD0"/>
<stop offset="1" stop-color="#D67751"/>
</linearGradient>
<clipPath id="clip0_205_7">
<rect width="1000" height="1000" fill="white"/>
</clipPath>
</defs>
</svg>
